<svg width="1280" height="640" viewBox="0 0 1280 640" fill="none" xmlns="http://www.w3.org/2000/svg">
  <defs>
    <linearGradient id="bg" x1="0" y1="0" x2="1280" y2="640" gradientUnits="userSpaceOnUse">
      <stop stop-color="#0B1020"/>
      <stop offset="0.55" stop-color="#131A33"/>
      <stop offset="1" stop-color="#0A0F1A"/>
    </linearGradient>
    <linearGradient id="accent" x1="128" y1="80" x2="1080" y2="560" gradientUnits="userSpaceOnUse">
      <stop stop-color="#7C3AED"/>
      <stop offset="0.5" stop-color="#06B6D4"/>
      <stop offset="1" stop-color="#22C55E"/>
    </linearGradient>
    <filter id="blur" x="0" y="0" width="1280" height="640" filterUnits="userSpaceOnUse" color-interpolation-filters="sRGB">
      <feGaussianBlur stdDeviation="60"/>
    </filter>
  </defs>
  <rect width="1280" height="640" rx="24" fill="url(#bg)"/>
  <g opacity="0.18" filter="url(#blur)">
    <circle cx="220" cy="120" r="150" fill="#7C3AED"/>
    <circle cx="1060" cy="160" r="180" fill="#06B6D4"/>
    <circle cx="880" cy="520" r="140" fill="#22C55E"/>
  </g>
  <rect x="64" y="64" width="1152" height="512" rx="28" fill="rgba(255,255,255,0.03)" stroke="rgba(255,255,255,0.08)"/>
  <text x="110" y="170" fill="#F8FAFC" font-family="Inter,Segoe UI,Arial,sans-serif" font-size="58" font-weight="700">brainrot</text>
  <text x="110" y="214" fill="#94A3B8" font-family="Inter,Segoe UI,Arial,sans-serif" font-size="24">Cross-agent doomscroll mode for coding sessions</text>
  <g transform="translate(110 258)">
    <rect width="118" height="36" rx="18" fill="#1E293B" stroke="#334155"/>
    <text x="59" y="23" text-anchor="middle" fill="#C7D2FE" font-family="Inter,Segoe UI,Arial,sans-serif" font-size="15" font-weight="600">Claude Code</text>
    <rect x="130" width="106" height="36" rx="18" fill="#1E293B" stroke="#334155"/>
    <text x="183" y="23" text-anchor="middle" fill="#A5F3FC" font-family="Inter,Segoe UI,Arial,sans-serif" font-size="15" font-weight="600">Gemini CLI</text>
    <rect x="248" width="88" height="36" rx="18" fill="#1E293B" stroke="#334155"/>
    <text x="292" y="23" text-anchor="middle" fill="#BBF7D0" font-family="Inter,Segoe UI,Arial,sans-serif" font-size="15" font-weight="600">Codex</text>
  </g>
  <g transform="translate(110 330)">
    <rect width="104" height="78" rx="18" fill="#0F172A" stroke="#312E81"/>
    <text x="52" y="34" text-anchor="middle" fill="#E2E8F0" font-family="Inter,Segoe UI,Arial,sans-serif" font-size="28" font-weight="700">3</text>
    <text x="52" y="56" text-anchor="middle" fill="#94A3B8" font-family="Inter,Segoe UI,Arial,sans-serif" font-size="14">agents</text>
    <rect x="118" width="104" height="78" rx="18" fill="#0F172A" stroke="#0F766E"/>
    <text x="170" y="34" text-anchor="middle" fill="#E2E8F0" font-family="Inter,Segoe UI,Arial,sans-serif" font-size="28" font-weight="700">5</text>
    <text x="170" y="56" text-anchor="middle" fill="#94A3B8" font-family="Inter,Segoe UI,Arial,sans-serif" font-size="14">providers</text>
    <rect x="236" width="132" height="78" rx="18" fill="#0F172A" stroke="#4F46E5"/>
    <text x="302" y="34" text-anchor="middle" fill="#E2E8F0" font-family="Inter,Segoe UI,Arial,sans-serif" font-size="28" font-weight="700">9346</text>
    <text x="302" y="56" text-anchor="middle" fill="#94A3B8" font-family="Inter,Segoe UI,Arial,sans-serif" font-size="14">daemon port</text>
  </g>
  <g transform="translate(628 108)">
    <rect width="512" height="392" rx="24" fill="#0B1220" stroke="#1F2937"/>
    <rect x="20" y="20" width="220" height="352" rx="18" fill="#111827" stroke="#374151"/>
    <circle cx="42" cy="42" r="6" fill="#FB7185"/>
    <circle cx="62" cy="42" r="6" fill="#F59E0B"/>
    <circle cx="82" cy="42" r="6" fill="#22C55E"/>
    <text x="32" y="80" fill="#F8FAFC" font-family="JetBrains Mono,Consolas,monospace" font-size="15">$ /brainrot</text>
    <rect x="32" y="112" width="160" height="34" rx="10" fill="#1E293B"/>
    <text x="44" y="134" fill="#C4B5FD" font-family="JetBrains Mono,Consolas,monospace" font-size="13">Provider: TikTok</text>
    <rect x="32" y="156" width="172" height="34" rx="10" fill="#1E293B"/>
    <text x="44" y="178" fill="#67E8F9" font-family="JetBrains Mono,Consolas,monospace" font-size="13">Mode: browser</text>
    <rect x="32" y="200" width="182" height="34" rx="10" fill="#1E293B"/>
    <text x="44" y="222" fill="#86EFAC" font-family="JetBrains Mono,Consolas,monospace" font-size="13">State: armed</text>
    <text x="32" y="280" fill="#94A3B8" font-family="JetBrains Mono,Consolas,monospace" font-size="13">Opens only while the agent works</text>
    <text x="32" y="302" fill="#94A3B8" font-family="JetBrains Mono,Consolas,monospace" font-size="13">Hides and resumes later</text>
    <rect x="264" y="20" width="228" height="352" rx="24" fill="#09090F" stroke="#27272A"/>
    <rect x="284" y="46" width="188" height="24" rx="12" fill="#18181B"/>
    <text x="378" y="63" text-anchor="middle" fill="#E2E8F0" font-family="Inter,Segoe UI,Arial,sans-serif" font-size="12" font-weight="700">BRAINROT LIVE</text>
    <rect x="284" y="86" width="188" height="178" rx="18" fill="url(#accent)" opacity="0.88"/>
    <text x="302" y="290" fill="#F8FAFC" font-family="Inter,Segoe UI,Arial,sans-serif" font-size="18" font-weight="700">pov: your agent is cooking</text>
    <text x="302" y="316" fill="#CBD5E1" font-family="Inter,Segoe UI,Arial,sans-serif" font-size="12">same session resumes after completion</text>
    <rect x="302" y="336" width="52" height="10" rx="5" fill="#F8FAFC" opacity="0.88"/>
    <rect x="364" y="336" width="28" height="10" rx="5" fill="#F8FAFC" opacity="0.45"/>
    <rect x="402" y="336" width="42" height="10" rx="5" fill="#F8FAFC" opacity="0.62"/>
  </g>
</svg>
